<?xml version="1.0" encoding="utf-8"?>
<!-- Generator: Adobe Illustrator 26.1.0, SVG Export Plug-In . SVG Version: 6.00 Build 0)  -->
<svg version="1.1" id="Layer_1" xmlns="http://www.w3.org/2000/svg" xmlns:xlink="http://www.w3.org/1999/xlink" x="0px" y="0px"
	 viewBox="0 0 792 792" style="enable-background:new 0 0 792 792;" xml:space="preserve">
<style type="text/css">
	.st0{fill:none;stroke:#F15A29;stroke-width:20;stroke-miterlimit:10;}
	.st1{fill:#F9ED32;}
	.st2{fill:#00AEEF;}
	.st3{font-family:'AcierBATText-Gris';}
	.st4{font-size:105.1875px;}
	.st5{font-size:82.6877px;}
</style>
<rect width="792" height="792"/>
<polyline class="st0" points="383.49,515.97 383.49,264.3 1109.16,264.3 1109.16,631.77 383.49,631.77 193.87,631.77 "/>
<polyline class="st0" points="189.62,40.15 189.62,-211.52 915.29,-211.52 915.29,155.94 189.62,155.94 0,155.94 "/>
<polyline class="st0" points="754.04,512.88 503.92,512.88 503.92,387.82 635.16,387.82 "/>
<polyline class="st0" points="270.39,631.77 20.27,631.77 20.27,506.71 151.5,506.71 "/>
<line class="st0" x1="746.32" y1="401.72" x2="746.32" y2="264.3"/>
<line class="st0" x1="379.17" y1="769.18" x2="379.17" y2="631.77"/>
<line class="st0" x1="70.52" y1="880.35" x2="70.52" y2="631.77"/>
<line class="st0" x1="193.87" y1="756.06" x2="193.87" y2="631.77"/>
<line class="st0" x1="141.43" y1="516.9" x2="141.43" y2="392.61"/>
<line class="st0" x1="981.01" y1="512.88" x2="1109.16" y2="512.88"/>
<line class="st0" x1="30.9" y1="278.23" x2="30.9" y2="153.94"/>
<line class="st0" x1="20.27" y1="402.52" x2="148.42" y2="402.52"/>
<path class="st1" d="M267.09,560.45c0.65-0.33,2.19,0.24,2.84-2.19c0.65-2.44-2.19-2.68-2.19-2.68c1.38-4.63,0.24-10.4,0.24-10.4
	c1.63-0.24,5.61-4.28,5.61-4.28c4.96-0.22,3.09-4.39,3.09-4.39c1.27-1.41,0.16-2.25,0.16-2.25c0-2.93-0.87-4.12-0.87-4.12
	c2.71-2.28,1.84-4.44,1.84-4.44c-2.71,0.43-10.29,0-10.29,0c-8.67,6.72-0.22,13.54-2.6,13.65c-2.38,0.11-7.58,2.17-7.58,2.17
	s2.06-2.93-5.85-7.48c-7.91-4.55-19.39,8.13-18.53,24.16c0.87,16.03,13,13.33,13,13.33s-1.73,6.28-0.11,6.14
	c1.63-0.14,3.14,3.29,2.28,3.61c-0.87,0.33-7.04,15.28-7.04,15.28c-4.12,0.33-14.3,18.31-14.3,18.31s-6.18,5.85-5.74,7.15
	c0.43,1.3,7.26,5.31,8.78,6.28s6.93,0,6.93,0s1.65-2.68-2.57-2.93s-4.47-6.74-0.41-10.89c4.06-4.14,9.91-11.86,9.91-11.86
	s2.76,0.41,5.04-4.47c2.28-4.88,6.74-10.89,6.74-10.89s5.53,7.56,7.64,8.86c2.11,1.3,0.16,18.69,2.36,24.21
	c2.19,5.53-0.33-0.24-0.98,10.4c0,0,16.82,2.84,17.23-0.89c0.41-3.74-4.14,2.36-9.67-7.96c0,0-1.95-13,0.49-22.18
	c2.44-9.18-5.53-7.48-6.91-18.2c0,0-1.95-5.61-3.41-6.42c-1.46-0.81,2.68-7.56,1.46-9.26C262.45,564.1,267.09,560.45,267.09,560.45z
	"/>
<text transform="matrix(1 0 0 1 193.8695 242.4592)" class="st2 st3 st4">BackPac </text>
<text transform="matrix(1 0 0 1 193.8695 316.4109)" class="st2 st3 st5">Man</text>
</svg>
