<?xml version="1.0" encoding="utf-8"?>
<!-- Generator: Adobe Illustrator 26.1.0, SVG Export Plug-In . SVG Version: 6.00 Build 0)  -->
<svg version="1.1" id="Layer_1" xmlns="http://www.w3.org/2000/svg" xmlns:xlink="http://www.w3.org/1999/xlink" x="0px" y="0px"
	 viewBox="0 0 792 792" style="enable-background:new 0 0 792 792;" xml:space="preserve">
<style type="text/css">
	.st0{fill:#00AEEF;}
	.st1{fill:#2E3192;}
	.st2{fill:#58595B;}
	.st3{fill:none;stroke:#000000;stroke-width:2;stroke-linecap:round;stroke-linejoin:round;}
	.st4{fill:none;stroke:#000000;stroke-width:2;stroke-linecap:round;stroke-linejoin:round;stroke-dasharray:12.2403,12.2403;}
	.st5{font-family:'StencilStd';}
	.st6{font-size:87.7502px;}
	.st7{font-size:75.5598px;}
</style>
<rect class="st0" width="792" height="792"/>
<g>
	<path class="st1" d="M1105.98,485.08c-96.25-13.32-195.59,21.41-290.51,0.63c-42.45-9.29-83.03-29.54-126.48-29.66
		c-50.43-0.13-96.66,26.79-145.95,37.43c-34.74,7.5-70.99,6.8-105.92,0.22c-38.63-7.27-76.8-21.7-115.97-18.46
		c-43.68,3.61-82.81,28.79-125.96,36.49c-30.73,5.48-63.05,1.73-91.71-10.64c-15.12-6.53-29.46-15.46-45.63-18.6
		c-24.85-4.82-49.9,4.65-74.25,11.57s-52.39,10.86-73.4-3.26L-94,763.05l224,177c0,0,268-33,272-33s212-20,216-21s167-58,179-60
		s137-27,156-37s58-41,78-68s14-106,14-106s-103-30-100-34s46-44,91-46S1105.98,485.08,1105.98,485.08z"/>
</g>
<polygon class="st2" points="161.38,521.46 268.2,521.46 310.52,479.15 129.47,479.15 "/>
<polyline class="st2" points="154.78,479.15 154.78,443.2 192.86,443.2 192.86,479.15 "/>
<polyline class="st2" points="162.86,443.2 162.86,421.28 169.13,421.28 169.13,443.2 "/>
<ellipse class="st2" cx="166" cy="421.28" rx="3.13" ry="0.85"/>
<ellipse class="st2" cx="253.39" cy="479.33" rx="18.2" ry="3.33"/>
<path class="st2" d="M243.96,476.49v-12.22c0,0,8.05-7.63,17.05,0v12.22"/>
<polyline class="st2" points="256.37,461.53 271.58,453.11 275.85,457.38 261.02,466.28 "/>
<ellipse transform="matrix(0.7071 -0.7071 0.7071 0.7071 -241.7545 326.9271)" cx="273.76" cy="455.29" rx="0.82" ry="2.97"/>
<polygon class="st2" points="671.7,488.74 564.88,488.74 522.57,446.43 703.61,446.43 "/>
<polyline class="st2" points="678.3,446.43 678.3,410.48 640.22,410.48 640.22,446.43 "/>
<polyline class="st2" points="670.22,410.48 670.22,388.57 663.96,388.57 663.96,410.48 "/>
<ellipse class="st2" cx="667.09" cy="388.57" rx="3.13" ry="0.85"/>
<ellipse class="st2" cx="579.7" cy="446.62" rx="18.2" ry="3.33"/>
<path class="st2" d="M589.12,443.77v-12.22c0,0-8.05-7.63-17.05,0v12.22"/>
<polyline class="st2" points="576.71,428.81 561.5,420.39 557.23,424.67 572.07,433.57 "/>
<ellipse transform="matrix(0.7071 -0.7071 0.7071 0.7071 -134.9805 519.2695)" cx="559.32" cy="422.57" rx="2.97" ry="0.82"/>
<ellipse transform="matrix(0.3453 -0.9385 0.9385 0.3453 7.9118 756.9638)" cx="546.49" cy="372.81" rx="5.04" ry="14.31"/>
<ellipse transform="matrix(0.3453 -0.9385 0.9385 0.3453 4.0604 742.2846)" cx="534.04" cy="368.23" rx="9.27" ry="3.18"/>
<g>
	<g>
		<path class="st3" d="M280.78,451.42c0,0,1.23-1.72,3.75-4.67"/>
		<path class="st4" d="M292.86,437.79c26.09-26.06,95.67-79.6,220.53-70.61"/>
		<path class="st3" d="M519.5,367.67c1.98,0.17,3.97,0.36,5.97,0.56"/>
	</g>
</g>
<text transform="matrix(1 0 0 1 232.9991 202.1327)" class="st5 st6">Battle</text>
<text transform="matrix(1 0 0 1 279.9572 272.4869)" class="st5 st7">Boats</text>
</svg>
