<?xml version="1.0" encoding="utf-8"?>
<!-- Generator: Adobe Illustrator 26.1.0, SVG Export Plug-In . SVG Version: 6.00 Build 0)  -->
<svg version="1.1" id="Layer_1" xmlns="http://www.w3.org/2000/svg" xmlns:xlink="http://www.w3.org/1999/xlink" x="0px" y="0px"
	 viewBox="0 0 792 792" style="enable-background:new 0 0 792 792;" xml:space="preserve">
<style type="text/css">
	.st0{fill:#ED1C24;}
	.st1{fill:#00A651;}
	.st2{fill:#2E3192;}
	.st3{fill:#92278F;}
	.st4{fill:#FFF200;}
	.st5{fill:#EF4136;}
	.st6{fill:#EE2A7B;}
	.st7{fill:url(#SVGID_1_);}
	.st8{fill:#006838;}
	.st9{fill:#F7941D;}
	.st10{fill:#F9ED32;}
	.st11{fill:#662D91;}
	.st12{fill:#FFFFFF;}
	.st13{fill:#EC008C;}
	.st14{fill:#00A79D;}
	.st15{fill:#00AEEF;}
	.st16{fill:#603913;}
	.st17{fill:#39B54A;}
</style>
<rect width="792" height="792"/>
<path class="st0" d="M125.13,350.66h14.34v14.34h-14.34V350.66z M125.13,363.23h14.34v14.34h-14.34V363.23z M125.13,375.81h14.34
	v14.34h-14.34V375.81z M125.13,388.39h14.34v14.34h-14.34V388.39z M125.13,400.97h14.34v14.34h-14.34V400.97z M125.13,413.55h14.34
	v14.34h-14.34V413.55z M126.89,363.23h10.82v-10.82h-10.82V363.23z M126.89,375.81h10.82v-10.82h-10.82V375.81z M126.89,388.39
	h10.82v-10.82h-10.82V388.39z M126.89,400.97h10.82v-10.82h-10.82V400.97z M126.89,413.55h10.82v-10.82h-10.82V413.55z
	 M126.89,426.12h10.82v-10.82h-10.82V426.12z M137.71,350.66h14.34v14.34h-14.34V350.66z M137.71,375.81h14.34v14.34h-14.34V375.81z
	 M137.71,413.55h14.34v14.34h-14.34V413.55z M139.47,363.23h10.82v-10.82h-10.82V363.23z M139.47,388.39h10.82v-10.82h-10.82V388.39
	z M139.47,426.12h10.82v-10.82h-10.82V426.12z M150.29,350.66h14.34v14.34h-14.34V350.66z M150.29,375.81h14.34v14.34h-14.34V375.81
	z M150.29,413.55h14.34v14.34h-14.34V413.55z M152.05,363.23h10.82v-10.82h-10.82V363.23z M152.05,388.39h10.82v-10.82h-10.82
	V388.39z M152.05,426.12h10.82v-10.82h-10.82V426.12z M162.87,350.66h14.34v14.34h-14.34V350.66z M162.87,375.81h14.34v14.34h-14.34
	V375.81z M162.87,413.55h14.34v14.34h-14.34V413.55z M164.63,363.23h10.82v-10.82h-10.82V363.23z M164.63,388.39h10.82v-10.82
	h-10.82V388.39z M164.63,426.12h10.82v-10.82h-10.82V426.12z M175.44,363.23h14.34v14.34h-14.34V363.23z M175.44,388.39h14.34v14.34
	h-14.34V388.39z M175.44,400.97h14.34v14.34h-14.34V400.97z M177.2,375.81h10.82v-10.82H177.2V375.81z M177.2,400.97h10.82v-10.82
	H177.2V400.97z M177.2,413.55h10.82v-10.82H177.2V413.55z"/>
<path class="st1" d="M200.6,350.66h14.34v14.34H200.6V350.66z M200.6,363.23h14.34v14.34H200.6V363.23z M200.6,375.81h14.34v14.34
	H200.6V375.81z M200.6,388.39h14.34v14.34H200.6V388.39z M200.6,400.97h14.34v14.34H200.6V400.97z M200.6,413.55h14.34v14.34H200.6
	V413.55z M202.36,363.23h10.82v-10.82h-10.82V363.23z M202.36,375.81h10.82v-10.82h-10.82V375.81z M202.36,388.39h10.82v-10.82
	h-10.82V388.39z M202.36,400.97h10.82v-10.82h-10.82V400.97z M202.36,413.55h10.82v-10.82h-10.82V413.55z M202.36,426.12h10.82
	v-10.82h-10.82V426.12z"/>
<path class="st2" d="M225.76,375.81h14.34v14.34h-14.34V375.81z M225.76,388.39h14.34v14.34h-14.34V388.39z M225.76,400.97h14.34
	v14.34h-14.34V400.97z M227.52,388.39h10.82v-10.82h-10.82V388.39z M227.52,400.97h10.82v-10.82h-10.82V400.97z M227.52,413.55
	h10.82v-10.82h-10.82V413.55z M238.33,363.23h14.34v14.34h-14.34V363.23z M238.33,413.55h14.34v14.34h-14.34V413.55z M240.1,375.81
	h10.82v-10.82H240.1V375.81z M240.1,426.12h10.82v-10.82H240.1V426.12z M250.91,363.23h14.34v14.34h-14.34V363.23z M250.91,413.55
	h14.34v14.34h-14.34V413.55z M252.67,375.81h10.82v-10.82h-10.82V375.81z M252.67,426.12h10.82v-10.82h-10.82V426.12z
	 M263.49,363.23h14.34v14.34h-14.34V363.23z M263.49,413.55h14.34v14.34h-14.34V413.55z M265.25,375.81h10.82v-10.82h-10.82V375.81z
	 M265.25,426.12h10.82v-10.82h-10.82V426.12z M276.07,375.81h14.34v14.34h-14.34V375.81z M276.07,388.39h14.34v14.34h-14.34V388.39z
	 M276.07,400.97h14.34v14.34h-14.34V400.97z M277.83,388.39h10.82v-10.82h-10.82V388.39z M277.83,400.97h10.82v-10.82h-10.82V400.97
	z M277.83,413.55h10.82v-10.82h-10.82V413.55z"/>
<path class="st3" d="M301.22,375.81h14.34v14.34h-14.34V375.81z M301.22,388.39h14.34v14.34h-14.34V388.39z M301.22,400.97h14.34
	v14.34h-14.34V400.97z M302.99,388.39h10.82v-10.82h-10.82V388.39z M302.99,400.97h10.82v-10.82h-10.82V400.97z M302.99,413.55
	h10.82v-10.82h-10.82V413.55z M313.8,363.23h14.34v14.34H313.8V363.23z M313.8,413.55h14.34v14.34H313.8V413.55z M315.56,375.81
	h10.82v-10.82h-10.82V375.81z M315.56,426.12h10.82v-10.82h-10.82V426.12z M326.38,363.23h14.34v14.34h-14.34V363.23z
	 M326.38,413.55h14.34v14.34h-14.34V413.55z M328.14,375.81h10.82v-10.82h-10.82V375.81z M328.14,426.12h10.82v-10.82h-10.82V426.12
	z M338.96,363.23h14.34v14.34h-14.34V363.23z M338.96,413.55h14.34v14.34h-14.34V413.55z M340.72,375.81h10.82v-10.82h-10.82V375.81
	z M340.72,426.12h10.82v-10.82h-10.82V426.12z M351.54,363.23h14.34v14.34h-14.34V363.23z M351.54,400.97h14.34v14.34h-14.34V400.97
	z M353.3,375.81h10.82v-10.82H353.3V375.81z M353.3,413.55h10.82v-10.82H353.3V413.55z"/>
<path class="st4" d="M376.69,350.66h14.34v14.34h-14.34V350.66z M376.69,363.23h14.34v14.34h-14.34V363.23z M376.69,375.81h14.34
	v14.34h-14.34V375.81z M376.69,388.39h14.34v14.34h-14.34V388.39z M376.69,400.97h14.34v14.34h-14.34V400.97z M376.69,413.55h14.34
	v14.34h-14.34V413.55z M378.45,363.23h10.82v-10.82h-10.82V363.23z M378.45,375.81h10.82v-10.82h-10.82V375.81z M378.45,388.39
	h10.82v-10.82h-10.82V388.39z M378.45,400.97h10.82v-10.82h-10.82V400.97z M378.45,413.55h10.82v-10.82h-10.82V413.55z
	 M378.45,426.12h10.82v-10.82h-10.82V426.12z M389.27,388.39h14.34v14.34h-14.34V388.39z M391.03,400.97h10.82v-10.82h-10.82V400.97
	z M401.85,375.81h14.34v14.34h-14.34V375.81z M401.85,400.97h14.34v14.34h-14.34V400.97z M403.61,388.39h10.82v-10.82h-10.82V388.39
	z M403.61,413.55h10.82v-10.82h-10.82V413.55z M414.43,363.23h14.34v14.34h-14.34V363.23z M414.43,413.55h14.34v14.34h-14.34V413.55
	z M416.19,375.81H427v-10.82h-10.82V375.81z M416.19,426.12H427v-10.82h-10.82V426.12z"/>
<path class="st5" d="M439.58,400.97h14.34v14.34h-14.34V400.97z M441.34,413.55h10.82v-10.82h-10.82V413.55z M452.16,363.23h14.34
	v14.34h-14.34V363.23z M452.16,388.39h14.34v14.34h-14.34V388.39z M452.16,413.55h14.34v14.34h-14.34V413.55z M453.92,375.81h10.82
	v-10.82h-10.82V375.81z M453.92,400.97h10.82v-10.82h-10.82V400.97z M453.92,426.12h10.82v-10.82h-10.82V426.12z M464.74,363.23
	h14.34v14.34h-14.34V363.23z M464.74,388.39h14.34v14.34h-14.34V388.39z M464.74,413.55h14.34v14.34h-14.34V413.55z M466.5,375.81
	h10.82v-10.82H466.5V375.81z M466.5,400.97h10.82v-10.82H466.5V400.97z M466.5,426.12h10.82v-10.82H466.5V426.12z M477.32,363.23
	h14.34v14.34h-14.34V363.23z M477.32,388.39h14.34v14.34h-14.34V388.39z M479.08,375.81h10.82v-10.82h-10.82V375.81z M479.08,400.97
	h10.82v-10.82h-10.82V400.97z M489.9,375.81h14.34v14.34H489.9V375.81z M489.9,388.39h14.34v14.34H489.9V388.39z M489.9,400.97
	h14.34v14.34H489.9V400.97z M489.9,413.55h14.34v14.34H489.9V413.55z M491.66,388.39h10.82v-10.82h-10.82V388.39z M491.66,400.97
	h10.82v-10.82h-10.82V400.97z M491.66,413.55h10.82v-10.82h-10.82V413.55z M491.66,426.12h10.82v-10.82h-10.82V426.12z"/>
<path class="st6" d="M515.05,375.81h14.34v14.34h-14.34V375.81z M515.05,388.39h14.34v14.34h-14.34V388.39z M515.05,400.97h14.34
	v14.34h-14.34V400.97z M516.81,388.39h10.82v-10.82h-10.82V388.39z M516.81,400.97h10.82v-10.82h-10.82V400.97z M516.81,413.55
	h10.82v-10.82h-10.82V413.55z M527.63,363.23h14.34v14.34h-14.34V363.23z M527.63,413.55h14.34v14.34h-14.34V413.55z M529.39,375.81
	h10.82v-10.82h-10.82V375.81z M529.39,426.12h10.82v-10.82h-10.82V426.12z M540.21,363.23h14.34v14.34h-14.34V363.23z
	 M540.21,413.55h14.34v14.34h-14.34V413.55z M541.97,375.81h10.82v-10.82h-10.82V375.81z M541.97,426.12h10.82v-10.82h-10.82V426.12
	z M552.79,363.23h14.34v14.34h-14.34V363.23z M552.79,400.97h14.34v14.34h-14.34V400.97z M554.55,375.81h10.82v-10.82h-10.82V375.81
	z M554.55,413.55h10.82v-10.82h-10.82V413.55z M565.36,350.66h14.34v14.34h-14.34V350.66z M565.36,363.23h14.34v14.34h-14.34V363.23
	z M565.36,375.81h14.34v14.34h-14.34V375.81z M565.36,388.39h14.34v14.34h-14.34V388.39z M565.36,400.97h14.34v14.34h-14.34V400.97z
	 M565.36,413.55h14.34v14.34h-14.34V413.55z M567.12,363.23h10.82v-10.82h-10.82V363.23z M567.12,375.81h10.82v-10.82h-10.82V375.81
	z M567.12,388.39h10.82v-10.82h-10.82V388.39z M567.12,400.97h10.82v-10.82h-10.82V400.97z M567.12,413.55h10.82v-10.82h-10.82
	V413.55z M567.12,426.12h10.82v-10.82h-10.82V426.12z"/>
<linearGradient id="SVGID_1_" gradientUnits="userSpaceOnUse" x1="590.5186" y1="395.5591" x2="655.1709" y2="395.5591">
	<stop  offset="0" style="stop-color:#FFF33B"/>
	<stop  offset="0.0595" style="stop-color:#FFE029"/>
	<stop  offset="0.1303" style="stop-color:#FFD217"/>
	<stop  offset="0.2032" style="stop-color:#FEC90E"/>
	<stop  offset="0.2809" style="stop-color:#FDC70C"/>
	<stop  offset="0.6685" style="stop-color:#F3903F"/>
	<stop  offset="0.8876" style="stop-color:#ED683C"/>
	<stop  offset="1" style="stop-color:#E93E3A"/>
</linearGradient>
<path class="st7" d="M590.52,375.81h14.34v14.34h-14.34V375.81z M590.52,388.39h14.34v14.34h-14.34V388.39z M590.52,400.97h14.34
	v14.34h-14.34V400.97z M592.28,388.39h10.82v-10.82h-10.82V388.39z M592.28,400.97h10.82v-10.82h-10.82V400.97z M592.28,413.55
	h10.82v-10.82h-10.82V413.55z M603.1,363.23h14.34v14.34H603.1V363.23z M603.1,388.39h14.34v14.34H603.1V388.39z M603.1,413.55
	h14.34v14.34H603.1V413.55z M604.86,375.81h10.82v-10.82h-10.82V375.81z M604.86,400.97h10.82v-10.82h-10.82V400.97z M604.86,426.12
	h10.82v-10.82h-10.82V426.12z M615.68,363.23h14.34v14.34h-14.34V363.23z M615.68,388.39h14.34v14.34h-14.34V388.39z M615.68,413.55
	h14.34v14.34h-14.34V413.55z M617.44,375.81h10.82v-10.82h-10.82V375.81z M617.44,400.97h10.82v-10.82h-10.82V400.97z
	 M617.44,426.12h10.82v-10.82h-10.82V426.12z M628.25,363.23h14.34v14.34h-14.34V363.23z M628.25,388.39h14.34v14.34h-14.34V388.39z
	 M628.25,413.55h14.34v14.34h-14.34V413.55z M630.01,375.81h10.82v-10.82h-10.82V375.81z M630.01,400.97h10.82v-10.82h-10.82V400.97
	z M630.01,426.12h10.82v-10.82h-10.82V426.12z M640.83,375.81h14.34v14.34h-14.34V375.81z M640.83,388.39h14.34v14.34h-14.34V388.39
	z M640.83,413.55h14.34v14.34h-14.34V413.55z M642.59,388.39h10.82v-10.82h-10.82V388.39z M642.59,400.97h10.82v-10.82h-10.82
	V400.97z M642.59,426.12h10.82v-10.82h-10.82V426.12z"/>
<rect x="121.59" y="435.09" class="st5" width="121.74" height="33.91"/>
<rect x="165.81" y="479" transform="matrix(6.123234e-17 -1 1 6.123234e-17 -269.274 722.639)" class="st5" width="121.74" height="33.91"/>
<rect x="199.72" y="479" transform="matrix(6.123234e-17 -1 1 6.123234e-17 -235.3639 756.5492)" class="st8" width="121.74" height="33.91"/>
<rect x="277.55" y="479" class="st8" width="121.74" height="33.91"/>
<rect x="121.59" y="469" class="st2" width="87.83" height="87.83"/>
<rect x="555.24" y="522.91" transform="matrix(-1 -1.224647e-16 1.224647e-16 -1 1232.2261 1079.74)" class="st9" width="121.74" height="33.91"/>
<rect x="511.02" y="479" transform="matrix(-1.836970e-16 1 -1 -1.836970e-16 1067.8436 -75.9305)" class="st9" width="121.74" height="33.91"/>
<rect x="477.11" y="479" transform="matrix(-1.836970e-16 1 -1 -1.836970e-16 1033.9335 -42.0204)" class="st10" width="121.74" height="33.91"/>
<rect x="399.28" y="479" transform="matrix(-1 -1.224647e-16 1.224647e-16 -1 920.3066 991.913)" class="st10" width="121.74" height="33.91"/>
<rect x="589.15" y="435.09" transform="matrix(-1 -1.224647e-16 1.224647e-16 -1 1266.1362 958.0029)" class="st11" width="87.83" height="87.83"/>
<rect x="277.55" y="435.09" class="st12" width="243.47" height="43.91"/>
<rect x="277.55" y="512.91" class="st13" width="243.47" height="43.91"/>
<rect x="43.91" y="45.34" transform="matrix(-1.836970e-16 1 -1 -1.836970e-16 167.082 -42.4819)" class="st5" width="121.74" height="33.91"/>
<rect y="89.57" class="st5" width="121.74" height="33.91"/>
<rect y="123.48" class="st8" width="121.74" height="33.91"/>
<rect y="201.3" transform="matrix(-1.836970e-16 1 -1 -1.836970e-16 279.1283 157.3912)" class="st8" width="121.74" height="33.91"/>
<rect x="0" y="1.43" transform="matrix(-1.836970e-16 1 -1 -1.836970e-16 89.2584 1.4315)" class="st2" width="87.83" height="87.83"/>
<rect x="-43.91" y="479" transform="matrix(6.123234e-17 -1 1 6.123234e-17 -479.0014 512.9116)" class="st9" width="121.74" height="33.91"/>
<rect y="434.78" transform="matrix(-1 -1.224647e-16 1.224647e-16 -1 121.737 903.4611)" class="st9" width="121.74" height="33.91"/>
<rect y="400.87" transform="matrix(-1 -1.224647e-16 1.224647e-16 -1 121.737 835.6408)" class="st10" width="121.74" height="33.91"/>
<rect y="323.04" transform="matrix(6.123234e-17 -1 1 6.123234e-17 -279.1283 400.8653)" class="st10" width="121.74" height="33.91"/>
<rect x="33.91" y="469" transform="matrix(6.123234e-17 -1 1 6.123234e-17 -435.088 590.7352)" class="st11" width="87.83" height="87.83"/>
<rect x="-21.96" y="257.17" transform="matrix(-1.836970e-16 1 -1 -1.836970e-16 378.9086 179.3479)" class="st12" width="243.47" height="43.91"/>
<rect x="-99.78" y="257.17" transform="matrix(-1.836970e-16 1 -1 -1.836970e-16 301.085 257.1715)" class="st13" width="243.47" height="43.91"/>
<rect x="555.24" y="309.54" transform="matrix(-1 -1.224647e-16 1.224647e-16 -1 1232.2261 652.9939)" class="st5" width="121.74" height="33.91"/>
<rect x="511.02" y="265.63" transform="matrix(-1.836970e-16 1 -1 -1.836970e-16 854.4706 -289.3036)" class="st5" width="121.74" height="33.91"/>
<rect x="477.11" y="265.63" transform="matrix(-1.836970e-16 1 -1 -1.836970e-16 820.5604 -255.3934)" class="st8" width="121.74" height="33.91"/>
<rect x="399.28" y="265.63" transform="matrix(-1 -1.224647e-16 1.224647e-16 -1 920.3066 565.1671)" class="st8" width="121.74" height="33.91"/>
<rect x="589.15" y="221.71" transform="matrix(-1 -1.224647e-16 1.224647e-16 -1 1266.1362 531.2569)" class="st2" width="87.83" height="87.83"/>
<rect x="121.59" y="221.71" class="st9" width="121.74" height="33.91"/>
<rect x="165.81" y="265.63" transform="matrix(6.123234e-17 -1 1 6.123234e-17 -55.901 509.266)" class="st9" width="121.74" height="33.91"/>
<rect x="199.72" y="265.63" transform="matrix(6.123234e-17 -1 1 6.123234e-17 -21.9909 543.1761)" class="st10" width="121.74" height="33.91"/>
<rect x="277.55" y="265.63" class="st10" width="121.74" height="33.91"/>
<rect x="121.59" y="255.63" class="st11" width="87.83" height="87.83"/>
<rect x="277.55" y="299.54" transform="matrix(-1 -1.224647e-16 1.224647e-16 -1 798.5696 642.9907)" class="st12" width="243.47" height="43.91"/>
<rect x="277.55" y="221.71" transform="matrix(-1 -1.224647e-16 1.224647e-16 -1 798.5696 487.3434)" class="st13" width="243.47" height="43.91"/>
<rect x="633.07" y="479" transform="matrix(6.123234e-17 -1 1 6.123234e-17 197.9801 1189.8932)" class="st5" width="121.74" height="33.91"/>
<rect x="676.98" y="434.78" transform="matrix(-1 -1.224647e-16 1.224647e-16 -1 1475.7002 903.4611)" class="st5" width="121.74" height="33.91"/>
<rect x="676.98" y="400.87" transform="matrix(-1 -1.224647e-16 1.224647e-16 -1 1475.7002 835.6408)" class="st8" width="121.74" height="33.91"/>
<rect x="676.98" y="323.04" transform="matrix(6.123234e-17 -1 1 6.123234e-17 397.8533 1077.8469)" class="st8" width="121.74" height="33.91"/>
<rect x="710.89" y="469" transform="matrix(6.123234e-17 -1 1 6.123234e-17 241.8936 1267.7168)" class="st2" width="87.83" height="87.83"/>
<rect x="720.9" y="45.34" transform="matrix(-1.836970e-16 1 -1 -1.836970e-16 844.0635 -719.4635)" class="st9" width="121.74" height="33.91"/>
<rect x="676.98" y="89.57" class="st9" width="121.74" height="33.91"/>
<rect x="676.98" y="123.48" class="st10" width="121.74" height="33.91"/>
<rect x="676.98" y="201.3" transform="matrix(-1.836970e-16 1 -1 -1.836970e-16 956.1098 -519.5903)" class="st10" width="121.74" height="33.91"/>
<rect x="676.98" y="1.43" transform="matrix(-1.836970e-16 1 -1 -1.836970e-16 766.2399 -675.55)" class="st11" width="87.83" height="87.83"/>
<rect x="577.2" y="257.17" transform="matrix(6.123234e-17 -1 1 6.123234e-17 419.81 978.0665)" class="st12" width="243.47" height="43.91"/>
<rect x="655.02" y="257.17" transform="matrix(6.123234e-17 -1 1 6.123234e-17 497.6336 1055.8901)" class="st13" width="243.47" height="43.91"/>
<rect x="633.07" y="1034.08" transform="matrix(6.123234e-17 -1 1 6.123234e-17 -357.1009 1744.9741)" class="st5" width="121.74" height="33.91"/>
<rect x="676.98" y="989.86" transform="matrix(-1 -1.224647e-16 1.224647e-16 -1 1475.7002 2013.6232)" class="st5" width="121.74" height="33.91"/>
<rect x="554.81" y="765.49" transform="matrix(-1 -1.224647e-16 1.224647e-16 -1 1231.3516 1564.8848)" class="st5" width="121.74" height="33.91"/>
<rect x="676.98" y="955.95" transform="matrix(-1 -1.224647e-16 1.224647e-16 -1 1475.7002 1945.8029)" class="st8" width="121.74" height="33.91"/>
<rect x="676.98" y="878.12" transform="matrix(6.123234e-17 -1 1 6.123234e-17 -157.2277 1632.9279)" class="st8" width="121.74" height="33.91"/>
<rect x="710.89" y="1024.08" transform="matrix(6.123234e-17 -1 1 6.123234e-17 -313.1875 1822.7977)" class="st2" width="87.83" height="87.83"/>
<rect x="720.9" y="600.43" transform="matrix(-1.836970e-16 1 -1 -1.836970e-16 1399.1445 -164.3825)" class="st9" width="121.74" height="33.91"/>
<rect x="676.98" y="644.65" class="st9" width="121.74" height="33.91"/>
<rect x="676.98" y="678.56" class="st10" width="121.74" height="33.91"/>
<rect x="676.98" y="756.39" transform="matrix(-1.836970e-16 1 -1 -1.836970e-16 1511.1908 35.4907)" class="st10" width="121.74" height="33.91"/>
<rect x="676.98" y="556.51" transform="matrix(-1.836970e-16 1 -1 -1.836970e-16 1321.3209 -120.469)" class="st11" width="87.83" height="87.83"/>
<rect x="577.2" y="812.25" transform="matrix(6.123234e-17 -1 1 6.123234e-17 -135.271 1533.1476)" class="st12" width="243.47" height="43.91"/>
<rect x="655.02" y="812.25" transform="matrix(6.123234e-17 -1 1 6.123234e-17 -57.4474 1610.9712)" class="st13" width="243.47" height="43.91"/>
<rect x="511.02" y="722.48" transform="matrix(-1.836970e-16 1 -1 -1.836970e-16 1311.3176 167.5435)" class="st5" width="121.74" height="33.91"/>
<rect x="477.11" y="722.48" transform="matrix(-1.836970e-16 1 -1 -1.836970e-16 1277.4075 201.4537)" class="st8" width="121.74" height="33.91"/>
<rect x="399.28" y="722.48" transform="matrix(-1 -1.224647e-16 1.224647e-16 -1 920.3066 1478.8612)" class="st8" width="121.74" height="33.91"/>
<rect x="589.15" y="678.56" transform="matrix(-1 -1.224647e-16 1.224647e-16 -1 1266.1362 1444.951)" class="st2" width="87.83" height="87.83"/>
<rect x="121.59" y="678.56" class="st9" width="121.74" height="33.91"/>
<rect x="165.81" y="722.48" transform="matrix(6.123234e-17 -1 1 6.123234e-17 -512.7481 966.1131)" class="st9" width="121.74" height="33.91"/>
<rect x="199.72" y="722.48" transform="matrix(6.123234e-17 -1 1 6.123234e-17 -478.838 1000.0233)" class="st10" width="121.74" height="33.91"/>
<rect x="277.55" y="722.48" class="st10" width="121.74" height="33.91"/>
<rect x="121.59" y="712.47" class="st11" width="87.83" height="87.83"/>
<rect x="277.55" y="756.39" transform="matrix(-1 -1.224647e-16 1.224647e-16 -1 798.5696 1556.6848)" class="st12" width="243.47" height="43.91"/>
<rect x="277.55" y="678.56" transform="matrix(-1 -1.224647e-16 1.224647e-16 -1 798.5696 1401.0376)" class="st13" width="243.47" height="43.91"/>
<rect x="-43.91" y="1034.08" transform="matrix(6.123234e-17 -1 1 6.123234e-17 -1034.0825 1067.9927)" class="st5" width="121.74" height="33.91"/>
<rect y="989.86" transform="matrix(-1 -1.224647e-16 1.224647e-16 -1 121.737 2013.6232)" class="st5" width="121.74" height="33.91"/>
<rect y="955.95" transform="matrix(-1 -1.224647e-16 1.224647e-16 -1 121.737 1945.8029)" class="st8" width="121.74" height="33.91"/>
<rect x="0" y="878.12" transform="matrix(6.123234e-17 -1 1 6.123234e-17 -834.2093 955.9464)" class="st8" width="121.74" height="33.91"/>
<rect x="33.91" y="1024.08" transform="matrix(6.123234e-17 -1 1 6.123234e-17 -990.169 1145.8163)" class="st2" width="87.83" height="87.83"/>
<rect x="43.91" y="600.43" transform="matrix(-1.836970e-16 1 -1 -1.836970e-16 722.163 512.5991)" class="st2" width="121.74" height="33.91"/>
<rect y="644.65" class="st2" width="121.74" height="33.91"/>
<rect y="678.56" class="st10" width="121.74" height="33.91"/>
<rect x="0" y="756.39" transform="matrix(-1.836970e-16 1 -1 -1.836970e-16 834.2093 712.4722)" class="st10" width="121.74" height="33.91"/>
<rect x="0" y="556.51" transform="matrix(-1.836970e-16 1 -1 -1.836970e-16 644.3394 556.5125)" class="st0" width="87.83" height="87.83"/>
<rect x="-99.78" y="812.25" transform="matrix(6.123234e-17 -1 1 6.123234e-17 -812.2526 856.166)" class="st12" width="243.47" height="43.91"/>
<rect x="-21.96" y="812.25" transform="matrix(6.123234e-17 -1 1 6.123234e-17 -734.429 933.9896)" class="st13" width="243.47" height="43.91"/>
<rect x="555.24" y="645.55" transform="matrix(-1 -1.224647e-16 1.224647e-16 -1 1232.2261 1325.0173)" class="st5" width="121.74" height="33.91"/>
<rect x="511.02" y="601.64" transform="matrix(-1.836970e-16 1 -1 -1.836970e-16 1190.4823 46.7082)" class="st5" width="121.74" height="33.91"/>
<rect x="477.11" y="601.64" transform="matrix(-1.836970e-16 1 -1 -1.836970e-16 1156.5721 80.6183)" class="st8" width="121.74" height="33.91"/>
<rect x="399.28" y="601.64" transform="matrix(-1 -1.224647e-16 1.224647e-16 -1 920.3066 1237.1904)" class="st8" width="121.74" height="33.91"/>
<rect x="589.15" y="557.73" transform="matrix(-1 -1.224647e-16 1.224647e-16 -1 1266.1362 1203.2803)" class="st14" width="87.83" height="87.83"/>
<rect x="121.59" y="557.73" class="st15" width="121.74" height="33.91"/>
<rect x="165.81" y="601.64" transform="matrix(6.123234e-17 -1 1 6.123234e-17 -391.9127 845.2777)" class="st15" width="121.74" height="33.91"/>
<rect x="199.72" y="601.64" transform="matrix(6.123234e-17 -1 1 6.123234e-17 -358.0026 879.1879)" class="st10" width="121.74" height="33.91"/>
<rect x="277.55" y="601.64" class="st10" width="121.74" height="33.91"/>
<rect x="121.59" y="591.64" class="st16" width="87.83" height="87.83"/>
<rect x="277.55" y="635.55" transform="matrix(-1 -1.224647e-16 1.224647e-16 -1 798.5696 1315.014)" class="st12" width="243.47" height="43.91"/>
<rect x="277.55" y="557.73" transform="matrix(-1 -1.224647e-16 1.224647e-16 -1 798.5696 1159.3668)" class="st17" width="243.47" height="43.91"/>
<rect x="122.03" y="-19.05" class="st5" width="121.74" height="33.91"/>
<rect x="165.81" y="23.96" transform="matrix(6.123234e-17 -1 1 6.123234e-17 185.7698 267.5952)" class="st5" width="121.74" height="33.91"/>
<rect x="199.72" y="23.96" transform="matrix(6.123234e-17 -1 1 6.123234e-17 219.6799 301.5054)" class="st8" width="121.74" height="33.91"/>
<rect x="277.55" y="23.96" class="st8" width="121.74" height="33.91"/>
<rect x="121.59" y="13.95" class="st2" width="87.83" height="87.83"/>
<rect x="555.24" y="67.87" transform="matrix(-1 -1.224647e-16 1.224647e-16 -1 1232.2261 169.6524)" class="st9" width="121.74" height="33.91"/>
<rect x="511.02" y="23.96" transform="matrix(-1.836970e-16 1 -1 -1.836970e-16 612.7998 -530.9743)" class="st9" width="121.74" height="33.91"/>
<rect x="477.11" y="23.96" transform="matrix(-1.836970e-16 1 -1 -1.836970e-16 578.8896 -497.0641)" class="st10" width="121.74" height="33.91"/>
<rect x="399.28" y="23.96" transform="matrix(-1 -1.224647e-16 1.224647e-16 -1 920.3066 81.8255)" class="st10" width="121.74" height="33.91"/>
<rect x="589.15" y="-19.96" transform="matrix(-1 -1.224647e-16 1.224647e-16 -1 1266.1362 47.9153)" class="st11" width="87.83" height="87.83"/>
<rect x="277.55" y="-19.96" class="st12" width="243.47" height="43.91"/>
<rect x="277.55" y="57.87" class="st13" width="243.47" height="43.91"/>
<rect x="121.59" y="100.88" class="st5" width="121.74" height="33.91"/>
<rect x="165.81" y="144.79" transform="matrix(6.123234e-17 -1 1 6.123234e-17 64.9344 388.4306)" class="st5" width="121.74" height="33.91"/>
<rect x="199.72" y="144.79" transform="matrix(6.123234e-17 -1 1 6.123234e-17 98.8445 422.3408)" class="st8" width="121.74" height="33.91"/>
<rect x="277.55" y="144.79" class="st8" width="121.74" height="33.91"/>
<rect x="121.59" y="134.79" class="st14" width="87.83" height="87.83"/>
<rect x="555.24" y="188.71" transform="matrix(-1 -1.224647e-16 1.224647e-16 -1 1232.2261 411.3232)" class="st15" width="121.74" height="33.91"/>
<rect x="511.02" y="144.79" transform="matrix(-1.836970e-16 1 -1 -1.836970e-16 733.6352 -410.1389)" class="st15" width="121.74" height="33.91"/>
<rect x="477.11" y="144.79" transform="matrix(-1.836970e-16 1 -1 -1.836970e-16 699.725 -376.2288)" class="st10" width="121.74" height="33.91"/>
<rect x="399.28" y="144.79" transform="matrix(-1 -1.224647e-16 1.224647e-16 -1 920.3066 323.4962)" class="st10" width="121.74" height="33.91"/>
<rect x="589.15" y="100.88" transform="matrix(-1 -1.224647e-16 1.224647e-16 -1 1266.1362 289.5861)" class="st16" width="87.83" height="87.83"/>
<rect x="277.55" y="100.88" class="st12" width="243.47" height="43.91"/>
<rect x="277.55" y="178.7" class="st17" width="243.47" height="43.91"/>
</svg>
