<?xml version="1.0" encoding="utf-8"?>
<!-- Generator: Adobe Illustrator 26.1.0, SVG Export Plug-In . SVG Version: 6.00 Build 0)  -->
<svg version="1.1" id="Layer_1" xmlns="http://www.w3.org/2000/svg" xmlns:xlink="http://www.w3.org/1999/xlink" x="0px" y="0px"
	 viewBox="0 0 792 792" style="enable-background:new 0 0 792 792;" xml:space="preserve">
<style type="text/css">
	.st0{fill:#ED1C24;}
	.st1{fill:#00A651;}
	.st2{fill:#2E3192;}
	.st3{fill:#92278F;}
	.st4{fill:#FFF200;}
	.st5{fill:#EF4136;}
	.st6{fill:#EE2A7B;}
	.st7{fill:url(#SVGID_1_);}
	.st8{fill:#006838;}
	.st9{fill:#F7941D;}
	.st10{fill:#F9ED32;}
	.st11{fill:#662D91;}
	.st12{fill:#EC008C;}
	.st13{fill:#00A79D;}
	.st14{fill:#00AEEF;}
	.st15{fill:#603913;}
	.st16{fill:#39B54A;}
</style>
<rect width="792" height="792"/>
<path class="st0" d="M135.14,350.66h14.34v14.34h-14.34V350.66z M135.14,363.23h14.34v14.34h-14.34V363.23z M135.14,375.81h14.34
	v14.34h-14.34V375.81z M135.14,388.39h14.34v14.34h-14.34V388.39z M135.14,400.97h14.34v14.34h-14.34V400.97z M135.14,413.55h14.34
	v14.34h-14.34V413.55z M136.9,363.23h10.82v-10.82H136.9V363.23z M136.9,375.81h10.82v-10.82H136.9V375.81z M136.9,388.39h10.82
	v-10.82H136.9V388.39z M136.9,400.97h10.82v-10.82H136.9V400.97z M136.9,413.55h10.82v-10.82H136.9V413.55z M136.9,426.12h10.82
	v-10.82H136.9V426.12z M147.72,350.66h14.34v14.34h-14.34V350.66z M147.72,375.81h14.34v14.34h-14.34V375.81z M147.72,413.55h14.34
	v14.34h-14.34V413.55z M149.48,363.23h10.82v-10.82h-10.82V363.23z M149.48,388.39h10.82v-10.82h-10.82V388.39z M149.48,426.12
	h10.82v-10.82h-10.82V426.12z M160.3,350.66h14.34v14.34H160.3V350.66z M160.3,375.81h14.34v14.34H160.3V375.81z M160.3,413.55
	h14.34v14.34H160.3V413.55z M162.06,363.23h10.82v-10.82h-10.82V363.23z M162.06,388.39h10.82v-10.82h-10.82V388.39z M162.06,426.12
	h10.82v-10.82h-10.82V426.12z M172.87,350.66h14.34v14.34h-14.34V350.66z M172.87,375.81h14.34v14.34h-14.34V375.81z M172.87,413.55
	h14.34v14.34h-14.34V413.55z M174.63,363.23h10.82v-10.82h-10.82V363.23z M174.63,388.39h10.82v-10.82h-10.82V388.39z
	 M174.63,426.12h10.82v-10.82h-10.82V426.12z M185.45,363.23h14.34v14.34h-14.34V363.23z M185.45,388.39h14.34v14.34h-14.34V388.39z
	 M185.45,400.97h14.34v14.34h-14.34V400.97z M187.21,375.81h10.82v-10.82h-10.82V375.81z M187.21,400.97h10.82v-10.82h-10.82V400.97
	z M187.21,413.55h10.82v-10.82h-10.82V413.55z"/>
<path class="st1" d="M210.61,350.66h14.34v14.34h-14.34V350.66z M210.61,363.23h14.34v14.34h-14.34V363.23z M210.61,375.81h14.34
	v14.34h-14.34V375.81z M210.61,388.39h14.34v14.34h-14.34V388.39z M210.61,400.97h14.34v14.34h-14.34V400.97z M210.61,413.55h14.34
	v14.34h-14.34V413.55z M212.37,363.23h10.82v-10.82h-10.82V363.23z M212.37,375.81h10.82v-10.82h-10.82V375.81z M212.37,388.39
	h10.82v-10.82h-10.82V388.39z M212.37,400.97h10.82v-10.82h-10.82V400.97z M212.37,413.55h10.82v-10.82h-10.82V413.55z
	 M212.37,426.12h10.82v-10.82h-10.82V426.12z"/>
<path class="st2" d="M235.76,375.81h14.34v14.34h-14.34V375.81z M235.76,388.39h14.34v14.34h-14.34V388.39z M235.76,400.97h14.34
	v14.34h-14.34V400.97z M237.53,388.39h10.82v-10.82h-10.82V388.39z M237.53,400.97h10.82v-10.82h-10.82V400.97z M237.53,413.55
	h10.82v-10.82h-10.82V413.55z M248.34,363.23h14.34v14.34h-14.34V363.23z M248.34,413.55h14.34v14.34h-14.34V413.55z M250.1,375.81
	h10.82v-10.82H250.1V375.81z M250.1,426.12h10.82v-10.82H250.1V426.12z M260.92,363.23h14.34v14.34h-14.34V363.23z M260.92,413.55
	h14.34v14.34h-14.34V413.55z M262.68,375.81h10.82v-10.82h-10.82V375.81z M262.68,426.12h10.82v-10.82h-10.82V426.12z M273.5,363.23
	h14.34v14.34H273.5V363.23z M273.5,413.55h14.34v14.34H273.5V413.55z M275.26,375.81h10.82v-10.82h-10.82V375.81z M275.26,426.12
	h10.82v-10.82h-10.82V426.12z M286.08,375.81h14.34v14.34h-14.34V375.81z M286.08,388.39h14.34v14.34h-14.34V388.39z M286.08,400.97
	h14.34v14.34h-14.34V400.97z M287.84,388.39h10.82v-10.82h-10.82V388.39z M287.84,400.97h10.82v-10.82h-10.82V400.97z
	 M287.84,413.55h10.82v-10.82h-10.82V413.55z"/>
<path class="st3" d="M311.23,375.81h14.34v14.34h-14.34V375.81z M311.23,388.39h14.34v14.34h-14.34V388.39z M311.23,400.97h14.34
	v14.34h-14.34V400.97z M312.99,388.39h10.82v-10.82h-10.82V388.39z M312.99,400.97h10.82v-10.82h-10.82V400.97z M312.99,413.55
	h10.82v-10.82h-10.82V413.55z M323.81,363.23h14.34v14.34h-14.34V363.23z M323.81,413.55h14.34v14.34h-14.34V413.55z M325.57,375.81
	h10.82v-10.82h-10.82V375.81z M325.57,426.12h10.82v-10.82h-10.82V426.12z M336.39,363.23h14.34v14.34h-14.34V363.23z
	 M336.39,413.55h14.34v14.34h-14.34V413.55z M338.15,375.81h10.82v-10.82h-10.82V375.81z M338.15,426.12h10.82v-10.82h-10.82V426.12
	z M348.97,363.23h14.34v14.34h-14.34V363.23z M348.97,413.55h14.34v14.34h-14.34V413.55z M350.73,375.81h10.82v-10.82h-10.82V375.81
	z M350.73,426.12h10.82v-10.82h-10.82V426.12z M361.55,363.23h14.34v14.34h-14.34V363.23z M361.55,400.97h14.34v14.34h-14.34V400.97
	z M363.31,375.81h10.82v-10.82h-10.82V375.81z M363.31,413.55h10.82v-10.82h-10.82V413.55z"/>
<path class="st4" d="M386.7,350.66h14.34v14.34H386.7V350.66z M386.7,363.23h14.34v14.34H386.7V363.23z M386.7,375.81h14.34v14.34
	H386.7V375.81z M386.7,388.39h14.34v14.34H386.7V388.39z M386.7,400.97h14.34v14.34H386.7V400.97z M386.7,413.55h14.34v14.34H386.7
	V413.55z M388.46,363.23h10.82v-10.82h-10.82V363.23z M388.46,375.81h10.82v-10.82h-10.82V375.81z M388.46,388.39h10.82v-10.82
	h-10.82V388.39z M388.46,400.97h10.82v-10.82h-10.82V400.97z M388.46,413.55h10.82v-10.82h-10.82V413.55z M388.46,426.12h10.82
	v-10.82h-10.82V426.12z M399.28,388.39h14.34v14.34h-14.34V388.39z M401.04,400.97h10.82v-10.82h-10.82V400.97z M411.86,375.81
	h14.34v14.34h-14.34V375.81z M411.86,400.97h14.34v14.34h-14.34V400.97z M413.62,388.39h10.82v-10.82h-10.82V388.39z M413.62,413.55
	h10.82v-10.82h-10.82V413.55z M424.43,363.23h14.34v14.34h-14.34V363.23z M424.43,413.55h14.34v14.34h-14.34V413.55z M426.2,375.81
	h10.82v-10.82H426.2V375.81z M426.2,426.12h10.82v-10.82H426.2V426.12z"/>
<path class="st5" d="M449.59,400.97h14.34v14.34h-14.34V400.97z M451.35,413.55h10.82v-10.82h-10.82V413.55z M462.17,363.23h14.34
	v14.34h-14.34V363.23z M462.17,388.39h14.34v14.34h-14.34V388.39z M462.17,413.55h14.34v14.34h-14.34V413.55z M463.93,375.81h10.82
	v-10.82h-10.82V375.81z M463.93,400.97h10.82v-10.82h-10.82V400.97z M463.93,426.12h10.82v-10.82h-10.82V426.12z M474.75,363.23
	h14.34v14.34h-14.34V363.23z M474.75,388.39h14.34v14.34h-14.34V388.39z M474.75,413.55h14.34v14.34h-14.34V413.55z M476.51,375.81
	h10.82v-10.82h-10.82V375.81z M476.51,400.97h10.82v-10.82h-10.82V400.97z M476.51,426.12h10.82v-10.82h-10.82V426.12z
	 M487.33,363.23h14.34v14.34h-14.34V363.23z M487.33,388.39h14.34v14.34h-14.34V388.39z M489.09,375.81h10.82v-10.82h-10.82V375.81z
	 M489.09,400.97h10.82v-10.82h-10.82V400.97z M499.9,375.81h14.34v14.34H499.9V375.81z M499.9,388.39h14.34v14.34H499.9V388.39z
	 M499.9,400.97h14.34v14.34H499.9V400.97z M499.9,413.55h14.34v14.34H499.9V413.55z M501.67,388.39h10.82v-10.82h-10.82V388.39z
	 M501.67,400.97h10.82v-10.82h-10.82V400.97z M501.67,413.55h10.82v-10.82h-10.82V413.55z M501.67,426.12h10.82v-10.82h-10.82
	V426.12z"/>
<path class="st6" d="M525.06,375.81h14.34v14.34h-14.34V375.81z M525.06,388.39h14.34v14.34h-14.34V388.39z M525.06,400.97h14.34
	v14.34h-14.34V400.97z M526.82,388.39h10.82v-10.82h-10.82V388.39z M526.82,400.97h10.82v-10.82h-10.82V400.97z M526.82,413.55
	h10.82v-10.82h-10.82V413.55z M537.64,363.23h14.34v14.34h-14.34V363.23z M537.64,413.55h14.34v14.34h-14.34V413.55z M539.4,375.81
	h10.82v-10.82H539.4V375.81z M539.4,426.12h10.82v-10.82H539.4V426.12z M550.22,363.23h14.34v14.34h-14.34V363.23z M550.22,413.55
	h14.34v14.34h-14.34V413.55z M551.98,375.81h10.82v-10.82h-10.82V375.81z M551.98,426.12h10.82v-10.82h-10.82V426.12z
	 M562.79,363.23h14.34v14.34h-14.34V363.23z M562.79,400.97h14.34v14.34h-14.34V400.97z M564.55,375.81h10.82v-10.82h-10.82V375.81z
	 M564.55,413.55h10.82v-10.82h-10.82V413.55z M575.37,350.66h14.34v14.34h-14.34V350.66z M575.37,363.23h14.34v14.34h-14.34V363.23z
	 M575.37,375.81h14.34v14.34h-14.34V375.81z M575.37,388.39h14.34v14.34h-14.34V388.39z M575.37,400.97h14.34v14.34h-14.34V400.97z
	 M575.37,413.55h14.34v14.34h-14.34V413.55z M577.13,363.23h10.82v-10.82h-10.82V363.23z M577.13,375.81h10.82v-10.82h-10.82V375.81
	z M577.13,388.39h10.82v-10.82h-10.82V388.39z M577.13,400.97h10.82v-10.82h-10.82V400.97z M577.13,413.55h10.82v-10.82h-10.82
	V413.55z M577.13,426.12h10.82v-10.82h-10.82V426.12z"/>
<linearGradient id="SVGID_1_" gradientUnits="userSpaceOnUse" x1="600.5266" y1="395.5591" x2="665.1789" y2="395.5591">
	<stop  offset="0" style="stop-color:#FFF33B"/>
	<stop  offset="0.0595" style="stop-color:#FFE029"/>
	<stop  offset="0.1303" style="stop-color:#FFD217"/>
	<stop  offset="0.2032" style="stop-color:#FEC90E"/>
	<stop  offset="0.2809" style="stop-color:#FDC70C"/>
	<stop  offset="0.6685" style="stop-color:#F3903F"/>
	<stop  offset="0.8876" style="stop-color:#ED683C"/>
	<stop  offset="1" style="stop-color:#E93E3A"/>
</linearGradient>
<path class="st7" d="M600.53,375.81h14.34v14.34h-14.34V375.81z M600.53,388.39h14.34v14.34h-14.34V388.39z M600.53,400.97h14.34
	v14.34h-14.34V400.97z M602.29,388.39h10.82v-10.82h-10.82V388.39z M602.29,400.97h10.82v-10.82h-10.82V400.97z M602.29,413.55
	h10.82v-10.82h-10.82V413.55z M613.1,363.23h14.34v14.34H613.1V363.23z M613.1,388.39h14.34v14.34H613.1V388.39z M613.1,413.55
	h14.34v14.34H613.1V413.55z M614.87,375.81h10.82v-10.82h-10.82V375.81z M614.87,400.97h10.82v-10.82h-10.82V400.97z M614.87,426.12
	h10.82v-10.82h-10.82V426.12z M625.68,363.23h14.34v14.34h-14.34V363.23z M625.68,388.39h14.34v14.34h-14.34V388.39z M625.68,413.55
	h14.34v14.34h-14.34V413.55z M627.44,375.81h10.82v-10.82h-10.82V375.81z M627.44,400.97h10.82v-10.82h-10.82V400.97z
	 M627.44,426.12h10.82v-10.82h-10.82V426.12z M638.26,363.23h14.34v14.34h-14.34V363.23z M638.26,388.39h14.34v14.34h-14.34V388.39z
	 M638.26,413.55h14.34v14.34h-14.34V413.55z M640.02,375.81h10.82v-10.82h-10.82V375.81z M640.02,400.97h10.82v-10.82h-10.82V400.97
	z M640.02,426.12h10.82v-10.82h-10.82V426.12z M650.84,375.81h14.34v14.34h-14.34V375.81z M650.84,388.39h14.34v14.34h-14.34V388.39
	z M650.84,413.55h14.34v14.34h-14.34V413.55z M652.6,388.39h10.82v-10.82H652.6V388.39z M652.6,400.97h10.82v-10.82H652.6V400.97z
	 M652.6,426.12h10.82v-10.82H652.6V426.12z"/>
<rect x="121.59" y="435.09" class="st5" width="121.74" height="33.91"/>
<rect x="165.81" y="479" transform="matrix(6.123234e-17 -1 1 6.123234e-17 -269.274 722.639)" class="st5" width="121.74" height="33.91"/>
<rect x="199.72" y="479" transform="matrix(6.123234e-17 -1 1 6.123234e-17 -235.3639 756.5492)" class="st8" width="121.74" height="33.91"/>
<rect x="277.55" y="479" class="st8" width="121.74" height="33.91"/>
<rect x="121.59" y="469" class="st2" width="87.83" height="87.83"/>
<rect x="555.24" y="522.91" transform="matrix(-1 -1.224647e-16 1.224647e-16 -1 1232.2261 1079.74)" class="st9" width="121.74" height="33.91"/>
<rect x="511.02" y="479" transform="matrix(-1.836970e-16 1 -1 -1.836970e-16 1067.8436 -75.9305)" class="st9" width="121.74" height="33.91"/>
<rect x="477.11" y="479" transform="matrix(-1.836970e-16 1 -1 -1.836970e-16 1033.9335 -42.0204)" class="st10" width="121.74" height="33.91"/>
<rect x="399.28" y="479" transform="matrix(-1 -1.224647e-16 1.224647e-16 -1 920.3066 991.913)" class="st10" width="121.74" height="33.91"/>
<rect x="589.15" y="435.09" transform="matrix(-1 -1.224647e-16 1.224647e-16 -1 1266.1362 958.0029)" class="st11" width="87.83" height="87.83"/>
<rect x="277.55" y="435.09" class="st3" width="243.47" height="43.91"/>
<rect x="277.55" y="512.91" class="st12" width="243.47" height="43.91"/>
<rect x="43.91" y="45.34" transform="matrix(-1.836970e-16 1 -1 -1.836970e-16 167.082 -42.4819)" class="st5" width="121.74" height="33.91"/>
<rect y="89.57" class="st5" width="121.74" height="33.91"/>
<rect y="123.48" class="st8" width="121.74" height="33.91"/>
<rect y="201.3" transform="matrix(-1.836970e-16 1 -1 -1.836970e-16 279.1283 157.3912)" class="st8" width="121.74" height="33.91"/>
<rect x="0" y="1.43" transform="matrix(-1.836970e-16 1 -1 -1.836970e-16 89.2584 1.4315)" class="st2" width="87.83" height="87.83"/>
<rect x="-43.91" y="479" transform="matrix(6.123234e-17 -1 1 6.123234e-17 -479.0014 512.9116)" class="st9" width="121.74" height="33.91"/>
<rect y="434.78" transform="matrix(-1 -1.224647e-16 1.224647e-16 -1 121.737 903.4611)" class="st9" width="121.74" height="33.91"/>
<rect y="400.87" transform="matrix(-1 -1.224647e-16 1.224647e-16 -1 121.737 835.6408)" class="st10" width="121.74" height="33.91"/>
<rect y="323.04" transform="matrix(6.123234e-17 -1 1 6.123234e-17 -279.1283 400.8653)" class="st10" width="121.74" height="33.91"/>
<rect x="33.91" y="469" transform="matrix(6.123234e-17 -1 1 6.123234e-17 -435.088 590.7352)" class="st11" width="87.83" height="87.83"/>
<rect x="-21.96" y="257.17" transform="matrix(-1.836970e-16 1 -1 -1.836970e-16 378.9086 179.3479)" class="st3" width="243.47" height="43.91"/>
<rect x="-99.78" y="257.17" transform="matrix(-1.836970e-16 1 -1 -1.836970e-16 301.085 257.1715)" class="st12" width="243.47" height="43.91"/>
<rect x="555.24" y="309.54" transform="matrix(-1 -1.224647e-16 1.224647e-16 -1 1232.2261 652.9939)" class="st5" width="121.74" height="33.91"/>
<rect x="511.02" y="265.63" transform="matrix(-1.836970e-16 1 -1 -1.836970e-16 854.4706 -289.3036)" class="st5" width="121.74" height="33.91"/>
<rect x="477.11" y="265.63" transform="matrix(-1.836970e-16 1 -1 -1.836970e-16 820.5604 -255.3934)" class="st8" width="121.74" height="33.91"/>
<rect x="399.28" y="265.63" transform="matrix(-1 -1.224647e-16 1.224647e-16 -1 920.3066 565.1671)" class="st8" width="121.74" height="33.91"/>
<rect x="589.15" y="221.71" transform="matrix(-1 -1.224647e-16 1.224647e-16 -1 1266.1362 531.2569)" class="st2" width="87.83" height="87.83"/>
<rect x="121.59" y="221.71" class="st9" width="121.74" height="33.91"/>
<rect x="165.81" y="265.63" transform="matrix(6.123234e-17 -1 1 6.123234e-17 -55.901 509.266)" class="st9" width="121.74" height="33.91"/>
<rect x="199.72" y="265.63" transform="matrix(6.123234e-17 -1 1 6.123234e-17 -21.9909 543.1761)" class="st10" width="121.74" height="33.91"/>
<rect x="277.55" y="265.63" class="st10" width="121.74" height="33.91"/>
<rect x="121.59" y="255.63" class="st11" width="87.83" height="87.83"/>
<rect x="277.55" y="299.54" transform="matrix(-1 -1.224647e-16 1.224647e-16 -1 798.5696 642.9907)" class="st3" width="243.47" height="43.91"/>
<rect x="277.55" y="221.71" transform="matrix(-1 -1.224647e-16 1.224647e-16 -1 798.5696 487.3434)" class="st12" width="243.47" height="43.91"/>
<rect x="633.07" y="479" transform="matrix(6.123234e-17 -1 1 6.123234e-17 197.9801 1189.8932)" class="st5" width="121.74" height="33.91"/>
<rect x="676.98" y="434.78" transform="matrix(-1 -1.224647e-16 1.224647e-16 -1 1475.7002 903.4611)" class="st5" width="121.74" height="33.91"/>
<rect x="676.98" y="400.87" transform="matrix(-1 -1.224647e-16 1.224647e-16 -1 1475.7002 835.6408)" class="st8" width="121.74" height="33.91"/>
<rect x="676.98" y="323.04" transform="matrix(6.123234e-17 -1 1 6.123234e-17 397.8533 1077.8469)" class="st8" width="121.74" height="33.91"/>
<rect x="710.89" y="469" transform="matrix(6.123234e-17 -1 1 6.123234e-17 241.8936 1267.7168)" class="st2" width="87.83" height="87.83"/>
<rect x="720.9" y="45.34" transform="matrix(-1.836970e-16 1 -1 -1.836970e-16 844.0635 -719.4635)" class="st9" width="121.74" height="33.91"/>
<rect x="676.98" y="89.57" class="st9" width="121.74" height="33.91"/>
<rect x="676.98" y="123.48" class="st10" width="121.74" height="33.91"/>
<rect x="676.98" y="201.3" transform="matrix(-1.836970e-16 1 -1 -1.836970e-16 956.1098 -519.5903)" class="st10" width="121.74" height="33.91"/>
<rect x="676.98" y="1.43" transform="matrix(-1.836970e-16 1 -1 -1.836970e-16 766.2399 -675.55)" class="st11" width="87.83" height="87.83"/>
<rect x="577.2" y="257.17" transform="matrix(6.123234e-17 -1 1 6.123234e-17 419.81 978.0665)" class="st3" width="243.47" height="43.91"/>
<rect x="655.02" y="257.17" transform="matrix(6.123234e-17 -1 1 6.123234e-17 497.6336 1055.8901)" class="st12" width="243.47" height="43.91"/>
<rect x="633.07" y="1034.08" transform="matrix(6.123234e-17 -1 1 6.123234e-17 -357.1009 1744.9741)" class="st5" width="121.74" height="33.91"/>
<rect x="676.98" y="989.86" transform="matrix(-1 -1.224647e-16 1.224647e-16 -1 1475.7002 2013.6232)" class="st5" width="121.74" height="33.91"/>
<rect x="554.81" y="765.49" transform="matrix(-1 -1.224647e-16 1.224647e-16 -1 1231.3516 1564.8848)" class="st5" width="121.74" height="33.91"/>
<rect x="676.98" y="955.95" transform="matrix(-1 -1.224647e-16 1.224647e-16 -1 1475.7002 1945.8029)" class="st8" width="121.74" height="33.91"/>
<rect x="676.98" y="878.12" transform="matrix(6.123234e-17 -1 1 6.123234e-17 -157.2277 1632.9279)" class="st8" width="121.74" height="33.91"/>
<rect x="710.89" y="1024.08" transform="matrix(6.123234e-17 -1 1 6.123234e-17 -313.1875 1822.7977)" class="st2" width="87.83" height="87.83"/>
<rect x="720.9" y="600.43" transform="matrix(-1.836970e-16 1 -1 -1.836970e-16 1399.1445 -164.3825)" class="st9" width="121.74" height="33.91"/>
<rect x="676.98" y="644.65" class="st9" width="121.74" height="33.91"/>
<rect x="676.98" y="678.56" class="st10" width="121.74" height="33.91"/>
<rect x="676.98" y="756.39" transform="matrix(-1.836970e-16 1 -1 -1.836970e-16 1511.1908 35.4907)" class="st10" width="121.74" height="33.91"/>
<rect x="676.98" y="556.51" transform="matrix(-1.836970e-16 1 -1 -1.836970e-16 1321.3209 -120.469)" class="st11" width="87.83" height="87.83"/>
<rect x="577.2" y="812.25" transform="matrix(6.123234e-17 -1 1 6.123234e-17 -135.271 1533.1476)" class="st3" width="243.47" height="43.91"/>
<rect x="655.02" y="812.25" transform="matrix(6.123234e-17 -1 1 6.123234e-17 -57.4474 1610.9712)" class="st12" width="243.47" height="43.91"/>
<rect x="511.02" y="722.48" transform="matrix(-1.836970e-16 1 -1 -1.836970e-16 1311.3176 167.5435)" class="st5" width="121.74" height="33.91"/>
<rect x="477.11" y="722.48" transform="matrix(-1.836970e-16 1 -1 -1.836970e-16 1277.4075 201.4537)" class="st8" width="121.74" height="33.91"/>
<rect x="399.28" y="722.48" transform="matrix(-1 -1.224647e-16 1.224647e-16 -1 920.3066 1478.8612)" class="st8" width="121.74" height="33.91"/>
<rect x="589.15" y="678.56" transform="matrix(-1 -1.224647e-16 1.224647e-16 -1 1266.1362 1444.951)" class="st2" width="87.83" height="87.83"/>
<rect x="121.59" y="678.56" class="st9" width="121.74" height="33.91"/>
<rect x="165.81" y="722.48" transform="matrix(6.123234e-17 -1 1 6.123234e-17 -512.7481 966.1131)" class="st9" width="121.74" height="33.91"/>
<rect x="199.72" y="722.48" transform="matrix(6.123234e-17 -1 1 6.123234e-17 -478.838 1000.0233)" class="st10" width="121.74" height="33.91"/>
<rect x="277.55" y="722.48" class="st10" width="121.74" height="33.91"/>
<rect x="121.59" y="712.47" class="st11" width="87.83" height="87.83"/>
<rect x="277.55" y="756.39" transform="matrix(-1 -1.224647e-16 1.224647e-16 -1 798.5696 1556.6848)" class="st3" width="243.47" height="43.91"/>
<rect x="277.55" y="678.56" transform="matrix(-1 -1.224647e-16 1.224647e-16 -1 798.5696 1401.0376)" class="st12" width="243.47" height="43.91"/>
<rect x="-43.91" y="1034.08" transform="matrix(6.123234e-17 -1 1 6.123234e-17 -1034.0825 1067.9927)" class="st5" width="121.74" height="33.91"/>
<rect y="989.86" transform="matrix(-1 -1.224647e-16 1.224647e-16 -1 121.737 2013.6232)" class="st5" width="121.74" height="33.91"/>
<rect y="955.95" transform="matrix(-1 -1.224647e-16 1.224647e-16 -1 121.737 1945.8029)" class="st8" width="121.74" height="33.91"/>
<rect x="0" y="878.12" transform="matrix(6.123234e-17 -1 1 6.123234e-17 -834.2093 955.9464)" class="st8" width="121.74" height="33.91"/>
<rect x="33.91" y="1024.08" transform="matrix(6.123234e-17 -1 1 6.123234e-17 -990.169 1145.8163)" class="st2" width="87.83" height="87.83"/>
<rect x="43.91" y="600.43" transform="matrix(-1.836970e-16 1 -1 -1.836970e-16 722.163 512.5991)" class="st2" width="121.74" height="33.91"/>
<rect y="644.65" class="st2" width="121.74" height="33.91"/>
<rect y="678.56" class="st10" width="121.74" height="33.91"/>
<rect x="0" y="756.39" transform="matrix(-1.836970e-16 1 -1 -1.836970e-16 834.2093 712.4722)" class="st10" width="121.74" height="33.91"/>
<rect x="0" y="556.51" transform="matrix(-1.836970e-16 1 -1 -1.836970e-16 644.3394 556.5125)" class="st0" width="87.83" height="87.83"/>
<rect x="-99.78" y="812.25" transform="matrix(6.123234e-17 -1 1 6.123234e-17 -812.2526 856.166)" class="st3" width="243.47" height="43.91"/>
<rect x="-21.96" y="812.25" transform="matrix(6.123234e-17 -1 1 6.123234e-17 -734.429 933.9896)" class="st12" width="243.47" height="43.91"/>
<rect x="555.24" y="645.55" transform="matrix(-1 -1.224647e-16 1.224647e-16 -1 1232.2261 1325.0173)" class="st5" width="121.74" height="33.91"/>
<rect x="511.02" y="601.64" transform="matrix(-1.836970e-16 1 -1 -1.836970e-16 1190.4823 46.7082)" class="st5" width="121.74" height="33.91"/>
<rect x="477.11" y="601.64" transform="matrix(-1.836970e-16 1 -1 -1.836970e-16 1156.5721 80.6183)" class="st8" width="121.74" height="33.91"/>
<rect x="399.28" y="601.64" transform="matrix(-1 -1.224647e-16 1.224647e-16 -1 920.3066 1237.1904)" class="st8" width="121.74" height="33.91"/>
<rect x="589.15" y="557.73" transform="matrix(-1 -1.224647e-16 1.224647e-16 -1 1266.1362 1203.2803)" class="st13" width="87.83" height="87.83"/>
<rect x="121.59" y="557.73" class="st14" width="121.74" height="33.91"/>
<rect x="165.81" y="601.64" transform="matrix(6.123234e-17 -1 1 6.123234e-17 -391.9127 845.2777)" class="st14" width="121.74" height="33.91"/>
<rect x="199.72" y="601.64" transform="matrix(6.123234e-17 -1 1 6.123234e-17 -358.0026 879.1879)" class="st10" width="121.74" height="33.91"/>
<rect x="277.55" y="601.64" class="st10" width="121.74" height="33.91"/>
<rect x="121.59" y="591.64" class="st15" width="87.83" height="87.83"/>
<rect x="277.55" y="635.55" transform="matrix(-1 -1.224647e-16 1.224647e-16 -1 798.5696 1315.014)" class="st3" width="243.47" height="43.91"/>
<rect x="277.55" y="557.73" transform="matrix(-1 -1.224647e-16 1.224647e-16 -1 798.5696 1159.3668)" class="st16" width="243.47" height="43.91"/>
<rect x="122.03" y="-19.05" class="st5" width="121.74" height="33.91"/>
<rect x="165.81" y="23.96" transform="matrix(6.123234e-17 -1 1 6.123234e-17 185.7698 267.5952)" class="st5" width="121.74" height="33.91"/>
<rect x="199.72" y="23.96" transform="matrix(6.123234e-17 -1 1 6.123234e-17 219.6799 301.5054)" class="st8" width="121.74" height="33.91"/>
<rect x="277.55" y="23.96" class="st8" width="121.74" height="33.91"/>
<rect x="121.59" y="13.95" class="st2" width="87.83" height="87.83"/>
<rect x="555.24" y="67.87" transform="matrix(-1 -1.224647e-16 1.224647e-16 -1 1232.2261 169.6524)" class="st9" width="121.74" height="33.91"/>
<rect x="511.02" y="23.96" transform="matrix(-1.836970e-16 1 -1 -1.836970e-16 612.7998 -530.9743)" class="st9" width="121.74" height="33.91"/>
<rect x="477.11" y="23.96" transform="matrix(-1.836970e-16 1 -1 -1.836970e-16 578.8896 -497.0641)" class="st10" width="121.74" height="33.91"/>
<rect x="399.28" y="23.96" transform="matrix(-1 -1.224647e-16 1.224647e-16 -1 920.3066 81.8255)" class="st10" width="121.74" height="33.91"/>
<rect x="589.15" y="-19.96" transform="matrix(-1 -1.224647e-16 1.224647e-16 -1 1266.1362 47.9153)" class="st11" width="87.83" height="87.83"/>
<rect x="277.55" y="-19.96" class="st3" width="243.47" height="43.91"/>
<rect x="277.55" y="57.87" class="st12" width="243.47" height="43.91"/>
<rect x="121.59" y="100.88" class="st5" width="121.74" height="33.91"/>
<rect x="165.81" y="144.79" transform="matrix(6.123234e-17 -1 1 6.123234e-17 64.9344 388.4306)" class="st5" width="121.74" height="33.91"/>
<rect x="199.72" y="144.79" transform="matrix(6.123234e-17 -1 1 6.123234e-17 98.8445 422.3408)" class="st8" width="121.74" height="33.91"/>
<rect x="277.55" y="144.79" class="st8" width="121.74" height="33.91"/>
<rect x="121.59" y="134.79" class="st13" width="87.83" height="87.83"/>
<rect x="555.24" y="188.71" transform="matrix(-1 -1.224647e-16 1.224647e-16 -1 1232.2261 411.3232)" class="st14" width="121.74" height="33.91"/>
<rect x="511.02" y="144.79" transform="matrix(-1.836970e-16 1 -1 -1.836970e-16 733.6352 -410.1389)" class="st14" width="121.74" height="33.91"/>
<rect x="477.11" y="144.79" transform="matrix(-1.836970e-16 1 -1 -1.836970e-16 699.725 -376.2288)" class="st10" width="121.74" height="33.91"/>
<rect x="399.28" y="144.79" transform="matrix(-1 -1.224647e-16 1.224647e-16 -1 920.3066 323.4962)" class="st10" width="121.74" height="33.91"/>
<rect x="589.15" y="100.88" transform="matrix(-1 -1.224647e-16 1.224647e-16 -1 1266.1362 289.5861)" class="st15" width="87.83" height="87.83"/>
<rect x="277.55" y="100.88" class="st3" width="243.47" height="43.91"/>
<rect x="277.55" y="178.7" class="st16" width="243.47" height="43.91"/>
</svg>
