<?xml version="1.0" encoding="utf-8"?>
<!-- Generator: Adobe Illustrator 26.1.0, SVG Export Plug-In . SVG Version: 6.00 Build 0)  -->
<svg version="1.1" id="Layer_1" xmlns="http://www.w3.org/2000/svg" xmlns:xlink="http://www.w3.org/1999/xlink" x="0px" y="0px"
	 viewBox="0 0 1204 131.48" style="enable-background:new 0 0 1204 131.48;" xml:space="preserve">
<style type="text/css">
	.st0{fill:#FFFFFF;}
</style>
<rect width="1204" height="131.48"/>
<g>
	<path class="st0" d="M49.5,22.27V18.6h22.14v3.67h4.43v55.1h26.57v3.67h4.43v14.69h-4.43v3.67H49.5v-3.67h-4.43V22.27H49.5z
		 M49.5,25.94v40.4h4.43v3.67h4.43v3.67h4.43v-3.67h-4.43v-3.67h-4.43v-3.67h4.43v3.67h4.43v3.67h4.43v3.67h4.43v-3.67h-4.43v-3.67
		h-4.43v-3.67h4.43v3.67h4.43v-40.4h-4.43v-3.67h-13.3v3.67H49.5z M49.5,73.69h4.43v-3.67H49.5V73.69z"/>
	<path class="st0" d="M120.35,44.31h4.43v-3.67h8.86v-3.67h35.43v3.67h8.86v3.67h4.43v3.67h4.43v18.37h-4.43v3.67h-4.43v3.67H142.5
		v3.67h4.43v3.67h26.57v-3.67h8.86v3.67h4.43v14.69h-8.86v3.67h-48.71v-3.67h-8.86v-3.67h-4.43V84.7h-4.43V55.33h4.43v-7.35h4.43
		v-3.67H120.35z M129.21,47.98h-4.43v3.67h-4.43V59h-4.43v7.35h4.43v3.67h4.43v3.67h4.43v-3.67h-4.43v-3.67h-4.43v-3.67h4.43v3.67
		h4.43v3.67h4.43v3.67h4.43v-3.67h-4.43v-3.67h-4.43v-3.67h4.43v3.67h4.43v3.67h4.43v-3.67h-4.43v-14.7h4.43v-3.67h17.71v3.67h4.43
		v11.02h4.43v3.67h4.43v-3.67h8.86V51.65h-4.43v-3.67h-4.43v-3.67h-8.86v-3.67h-26.57v3.67h-8.86L129.21,47.98L129.21,47.98z
		 M115.92,73.69h4.43v-3.67h-4.43V73.69z M155.78,51.65h-8.86v3.67h-4.43v7.35h13.29V59h4.43v-3.67h-4.43V51.65z M146.92,70.02h4.43
		v-3.67h-4.43V70.02z M155.78,70.02h4.43v-3.67h-4.43V70.02z M160.21,62.67v3.67h4.43v3.67h4.43v-3.67h-4.43v-3.67H160.21z"/>
	<path class="st0" d="M204.49,44.31h4.43v-3.67h8.86v-3.67h31v3.67h4.43v-3.67h17.71v3.67h4.43v58.77h-4.43v7.35h-4.43v3.67h-4.43
		v3.67h-8.86v3.67h-44.29v-3.67h-8.86V99.4h4.43v-3.67h8.86v3.67h22.14v-3.67h8.86v-7.35h-8.86v3.67h-22.14v-3.67h-8.86v-3.67h-4.43
		v-7.35h-4.43V55.33h4.43v-7.35h4.43v-3.67H204.49z M213.34,47.98h-4.43v3.67h-4.43V59h-4.43v7.35h4.43v3.67h4.43v3.67h4.43v-3.67
		h-4.43v-3.67h-4.43v-3.67h4.43v3.67h4.43v3.67h4.43v3.67h4.43v-3.67h-4.43v-3.67h-4.43v-3.67h4.43v3.67h4.43V55.33h4.43v-3.67
		h22.14v11.02h4.43v3.67h4.43v3.67h4.43v3.67h4.43v-3.67h-4.43v-3.67h-4.43v-3.67h4.43v3.67h4.43v3.67h4.43v-3.67h-4.43v-3.67h4.43
		V44.31h-4.43v-3.67h-8.86v3.67h-13.29v-3.67H222.2v3.67h-8.86V47.98z M200.06,73.69h4.43v-3.67h-4.43V73.69z M231.06,55.33V59
		h-4.43v11.02h4.43v3.67h8.86v-3.67h4.43V55.33H231.06z M248.77,70.02h4.43v3.67h4.43v-3.67h-4.43v-3.67h-4.43L248.77,70.02
		L248.77,70.02z"/>
	<path class="st0" d="M293.05,44.31h4.43v-3.67h8.86v-3.67h35.43v3.67h8.86v3.67h4.43v3.67h4.43v18.37h-4.43v3.67h-4.43v3.67H315.2
		v3.67h4.43v3.67h26.57v-3.67h8.86v3.67h4.43v14.69h-8.86v3.67h-48.71v-3.67h-8.86v-3.67h-4.43V84.7h-4.43V55.33h4.43v-7.35h4.43
		L293.05,44.31L293.05,44.31z M301.91,47.98h-4.43v3.67h-4.43V59h-4.43v7.35h4.43v3.67h4.43v3.67h4.43v-3.67h-4.43v-3.67h-4.43
		v-3.67h4.43v3.67h4.43v3.67h4.43v3.67h4.43v-3.67h-4.43v-3.67h-4.43v-3.67h4.43v3.67h4.43v3.67h4.43v-3.67h-4.43v-14.7h4.43v-3.67
		h17.71v3.67h4.43v11.02h4.43v3.67h4.43v-3.67h8.86V51.65h-4.43v-3.67h-4.43v-3.67h-8.86v-3.67h-26.57v3.67h-8.86L301.91,47.98
		L301.91,47.98z M288.62,73.69h4.43v-3.67h-4.43V73.69z M328.48,51.65h-8.86v3.67h-4.43v7.35h13.29V59h4.43v-3.67h-4.43
		L328.48,51.65L328.48,51.65z M319.62,70.02h4.43v-3.67h-4.43V70.02z M328.48,70.02h4.43v-3.67h-4.43V70.02z M332.91,62.67v3.67
		h4.43v3.67h4.43v-3.67h-4.43v-3.67H332.91z"/>
	<path class="st0" d="M372.76,40.63v-3.67h22.14v3.67h4.43v-3.67h35.43v3.67h4.43v3.67h4.43v7.35h4.43v44.08h-4.43v3.67h-22.14
		v-3.67h-4.43V59h-4.43v-3.67h-4.43V59h-8.86v36.73h-4.43v3.67h-22.14v-3.67h-4.43v-55.1C368.33,40.63,372.76,40.63,372.76,40.63z
		 M372.76,44.31v22.04h4.43v3.67h4.43v3.67h4.43v-3.67h-4.43v-3.67h-4.43v-3.67h4.43v3.67h4.43v3.67h4.43v3.67h4.43v-3.67h-4.43
		v-3.67h-4.43v-3.67h4.43v3.67h4.43V55.33h8.86v-3.67h13.29v3.67h4.43v11.02h4.43v3.67h4.43v3.67h4.43v-3.67h-4.43v-3.67h-4.43
		v-3.67h4.43v3.67h4.43v3.67h4.43v3.67h4.43v-3.67h-4.43v-3.67h-4.43v-3.67h4.43v3.67h4.43V55.33h-4.43v-7.35h-4.43v-3.67h-4.43
		v-3.67h-26.57v3.67h-13.29v-3.67H377.2v3.67C377.2,44.31,372.76,44.31,372.76,44.31z M372.76,73.69h4.43v-3.67h-4.43V73.69z
		 M421.47,73.69h4.43v-3.67h-4.43V73.69z"/>
	<path class="st0" d="M470.18,40.63h8.86v-3.67h26.57V22.27h4.43V18.6h22.14v3.67h4.43v73.46h-4.43v3.67h-22.14v-3.67h-4.43v3.67
		h-31v-3.67h-8.86v-3.67h-4.43v-7.35h-4.43V55.33h4.43v-7.35h4.43v-3.67h4.43V40.63z M510.04,25.94v14.69h-26.57v3.67h-8.86v3.67
		h-4.43v3.67h-4.43v7.35h-4.43v7.35h4.43v3.67h4.43v3.67h4.43v-3.67h-4.43v-3.67h-4.43v-3.67h4.43v3.67h4.43v3.67h4.43v3.67h4.43
		v-3.67h-4.43v-3.67h-4.43v-3.67h4.43v3.67h4.43V55.33h4.43v-3.67h22.14v14.69h4.43v3.67h4.43v3.67h4.43v-3.67h-4.43v-3.67h-4.43
		v-3.67h4.43v3.67h4.43v3.67h4.43v3.67h4.43v-3.67h-4.43v-3.67h-4.43v-3.67h4.43v3.67h4.43v-40.4h-4.43v-3.67h-13.29v3.67h-4.43
		V25.94z M461.33,73.69h4.43v-3.67h-4.43V73.69z M492.33,55.33V59h-4.43v18.37h4.43v3.67h8.86v-3.67h4.43V55.33H492.33z
		 M510.04,73.69h4.43v-3.67h-4.43L510.04,73.69L510.04,73.69z"/>
	<path class="st0" d="M558.75,40.63v-3.67h44.29v3.67h8.86v3.67h4.43v7.35h4.43v44.08h-4.43v3.67h-22.14v-3.67h-4.43v3.67h-31v-3.67
		h-8.86v-3.67h-4.43V73.69h4.43v-3.67h8.86v-3.67h8.86v-3.67h22.14V59h-4.43v-3.67h-22.14V59h-8.86v-3.67h-4.43v-14.7H558.75z
		 M554.32,44.31v7.35h35.43v3.67h4.43v7.35h4.43v3.67h4.43v3.67h4.43v3.67h4.43v-3.67h-4.43v-3.67h-4.43v-3.67h4.43v3.67h4.43v3.67
		h4.43v-3.67h-4.43v-3.67h4.43v-7.35h-4.43v-7.35h-4.43v-3.67h-8.86v-3.67h-35.43v3.67C563.18,44.31,554.32,44.31,554.32,44.31z
		 M563.18,73.69h4.43v-3.67h-4.43V73.69z M576.46,73.69v3.67h-4.43v3.67h4.43v3.67h8.86v-3.67h4.43v-7.35h-13.29V73.69z
		 M576.46,70.02h4.43v-3.67h-4.43V70.02z M585.32,70.02h4.43v-3.67h-4.43V70.02z M594.18,70.02h4.43v3.67h4.43v-3.67h-4.43v-3.67
		h-4.43V70.02z"/>
	<path class="st0" d="M634.03,40.63v-3.67h22.14v3.67h4.43v-3.67h17.72v3.67h4.43V59h-4.43v3.67h-13.29V59h-4.43v36.73h-4.43v3.67
		h-22.14v-3.67h-4.43v-55.1C629.6,40.63,634.03,40.63,634.03,40.63z M634.03,44.31v22.04h4.43v3.67h4.43v3.67h4.43v-3.67h-4.43
		v-3.67h-4.43v-3.67h4.43v3.67h4.43v3.67h4.43v3.67h4.43v-3.67h-4.43v-3.67h-4.43v-3.67h4.43v3.67h4.43V55.33h13.29V59h4.43v-3.67
		h4.43V44.31h-4.43v-3.67h-8.86v3.67h-13.29v-3.67h-13.29v3.67C638.46,44.31,634.03,44.31,634.03,44.31z M634.03,73.69h4.43v-3.67
		h-4.43V73.69z"/>
	<path class="st0" d="M691.59,40.63v-3.67h22.14v3.67h4.43V59h4.43v11.02h4.43v7.35h4.43v-7.35h4.43V59h4.43V40.63h4.43v-3.67h22.14
		v3.67h4.43v25.71h-4.43v7.35h-4.43v7.35h-4.43v7.35h-4.43v3.67h-4.43v3.67h-4.43v3.67h-4.43v3.67h-4.43v3.67h-4.43v3.67h-4.43v3.67
		h-8.86v3.67h-26.57v-3.67h-4.43v-11.02h4.43v-3.67h8.86v-3.67h8.86v-3.67h-4.43v-3.67h-4.43v-7.35h-4.43v-7.35h-4.43v-7.35h-4.43
		v-25.7H691.59z M691.59,44.31v18.37h4.43v3.67h4.43v3.67h4.43v3.67h4.43v-3.67h-4.43v-3.67h-4.43v-3.67h4.43v3.67h4.43v3.67h4.43
		v3.67h4.43v-3.67h-4.43v-3.67h-4.43v-3.67h4.43v3.67h4.43v-3.67h-4.43V44.31h-4.43v-3.67h-13.28v3.67
		C696.03,44.31,691.59,44.31,691.59,44.31z M740.31,62.67v3.67h4.43v3.67h4.43v3.67h4.43v-3.67h-4.43v-3.67h-4.43v-3.67H740.31z
		 M740.31,73.69h4.43v-3.67h-4.43V73.69z M744.74,44.31v18.37h4.43v3.67h4.43v3.67h4.43v-3.67h-4.43v-3.67h4.43v3.67h4.43v-3.67
		h4.43V44.31h-4.43v-3.67h-13.29v3.67C749.17,44.31,744.74,44.31,744.74,44.31z"/>
</g>
<g>
	<path class="st0" d="M852.43,35.38v-3.46h61.45v3.46h4.73v13.86h-4.73v3.46h-33.09v10.39h28.36v3.46h4.73v13.86h-4.73v3.46h-28.36
		v20.79h-4.73v3.46h-23.64v-3.46h-4.73V35.37L852.43,35.38L852.43,35.38z M852.43,38.84v38.11h4.73v3.47h4.73v3.46h4.73v-3.46h-4.73
		v-3.47h-4.73v-3.46h4.73v3.46h4.73v3.47h4.73v3.46h4.73v-3.46h-4.73v-3.47h-4.73v-3.46h4.73v3.46h4.73v3.47h4.73v-3.47h-4.73v-3.46
		h4.73v3.46h4.73v3.47h4.73v-3.47h-4.73v-3.46h4.73v3.46H895v3.47h4.73v-3.47H895v-3.46h4.73v3.46h4.73v-3.46h4.73v-3.46h-4.73
		v-3.47H876.1V49.24h33.09v-3.46h4.73v-6.93h-4.73v-3.46h-52v3.46L852.43,38.84L852.43,38.84z M852.43,83.88h4.73v-3.46h-4.73V83.88
		z"/>
	<path class="st0" d="M928.06,35.38v-3.46h23.64v3.46h4.73v13.86h-4.73v3.46h-23.64v-3.46h-4.73V35.38H928.06z M928.06,59.63v-3.46
		h23.64v3.46h4.73v45.04h-4.73v3.46h-23.64v-3.46h-4.73V59.63L928.06,59.63L928.06,59.63z M928.06,38.84v6.93h4.73v3.46h14.18v-3.46
		h4.73v-6.93h-4.73v-3.46h-14.18v3.46H928.06z M928.06,63.09v13.86h4.73v3.47h4.73v3.46h4.73v-3.46h-4.73v-3.47h-4.73v-3.46h4.73
		v3.46h4.73v3.47h4.73v3.46h4.73v-3.46h-4.73v-3.47h-4.73v-3.46h4.73v3.46h4.73V63.09h-4.73v-3.47h-14.19v3.47H928.06z
		 M928.06,83.88h4.73v-3.46h-4.73V83.88z"/>
	<path class="st0" d="M970.61,52.7v-3.46h23.64v3.46h4.73v-3.46h37.82v3.46h4.73v3.46h4.73v6.93h4.73v41.57h-4.73v3.46h-23.63v-3.46
		h-4.73V70.02h-4.73v-3.47h-4.73v3.47h-9.45v34.64h-4.73v3.46h-23.64v-3.46h-4.73V52.69L970.61,52.7L970.61,52.7z M970.61,56.16
		v20.79h4.73v3.47h4.73v3.46h4.73v-3.46h-4.73v-3.47h-4.73v-3.46h4.73v3.46h4.73v3.47h4.73v3.46h4.73v-3.46h-4.73v-3.47h-4.73v-3.46
		h4.73v3.46h4.73V66.56h9.45V63.1h14.18v3.46h4.73v10.39h4.73v3.47h4.73v3.46h4.73v-3.46h-4.73v-3.47h-4.73v-3.46h4.73v3.46h4.73
		v3.47h4.73v3.46h4.73v-3.46h-4.73v-3.47h-4.73v-3.46h4.73v3.46h4.73V66.56h-4.73v-6.93h-4.73v-3.46h-4.73v-3.46h-28.36v3.46h-14.18
		v-3.46h-14.18v3.46L970.61,56.16L970.61,56.16z M970.61,83.88h4.73v-3.46h-4.73V83.88z M1022.6,83.88h4.73v-3.46h-4.73V83.88z"/>
	<path class="st0" d="M1074.6,52.7h9.45v-3.46h28.36V35.38h4.73v-3.46h23.63v3.46h4.73v69.29h-4.73v3.46h-23.63v-3.46h-4.73v3.46
		h-33.09v-3.46h-9.45v-3.47h-4.73v-6.93h-4.73V66.55h4.73v-6.93h4.73v-3.46h4.73V52.7z M1117.15,38.84V52.7h-28.36v3.46h-9.45v3.46
		h-4.73v3.47h-4.73v6.93h-4.73v6.93h4.73v3.47h4.73v3.46h4.73v-3.46h-4.73v-3.47h-4.73v-3.46h4.73v3.46h4.73v3.47h4.73v3.46h4.73
		v-3.46h-4.73v-3.47h-4.73v-3.46h4.73v3.46h4.73V66.56h4.73V63.1h23.63v13.86h4.73v3.47h4.73v3.46h4.73v-3.46h-4.73v-3.47h-4.73
		V73.5h4.73v3.46h4.73v3.47h4.73v3.46h4.73v-3.46h-4.73v-3.47h-4.73V73.5h4.73v3.46h4.73V38.85h-4.73v-3.46h-14.18v3.46
		L1117.15,38.84L1117.15,38.84z M1065.15,83.88h4.73v-3.46h-4.73V83.88z M1098.24,66.56v3.47h-4.73v17.32h4.73v3.46h9.45v-3.46h4.73
		V66.56H1098.24z M1117.15,83.88h4.73v-3.46h-4.73V83.88z"/>
</g>
</svg>
